<?xml version="1.0" encoding="UTF-8"?>
<svg id="Capa_1" data-name="Capa 1" xmlns="http://www.w3.org/2000/svg" viewBox="0 0 512 438.71">
  <defs>
    <style>
      .cls-1 {
        fill: #e6ecf2;
      }

      .cls-1, .cls-2, .cls-3 {
        stroke-width: 0px;
      }

      .cls-2 {
        fill: #4a7ff3;
      }

      .cls-3 {
        fill: #86aaf7;
      }
    </style>
  </defs>
  <path class="cls-2" d="M512,422.91c-1.24.5-1.46,1.72-1.95,2.75-4.11,8.51-11.14,12.79-20.34,12.88-21.83.22-43.66.22-65.49.01-11.28-.11-20.76-8.08-22.2-17.97-1.82-12.51,3.41-21.81,14.42-25.89,2.59-.96,5.22-.96,7.88-.96,12.67-.03,25.33-.13,37.99.06,3.58.05,4.88-.73,4.88-4.64-.11-113.15-.11-226.31,0-339.46,0-3.84-1.17-4.76-4.82-4.7-12.83.2-25.66.15-38.49.03-12.89-.13-21.84-8.66-22.06-20.81-.25-13.62,8.24-23.7,21.34-23.94,22.49-.4,45-.36,67.49.01,9.43.15,16.3,5.14,19.94,14.12.36.88.35,2.01,1.43,2.5v406Z"/>
  <path class="cls-2" d="M0,16.91c1.46-.24,1.54-1.51,1.99-2.57C5.92,5.07,13.16.33,23.02.23,44.85,0,66.69.05,88.52.2c11.85.09,20.47,7.97,22.09,19.63,1.58,11.37-4.47,21.08-15.16,24.45-2.45.77-4.93.76-7.42.77-12.5.04-25,.24-37.49-.08-4.55-.12-5.51,1.37-5.5,5.66.12,80.99.09,161.99.09,242.98,0,31.33.14,62.66-.14,93.99-.05,5.3,1.59,6.36,6.47,6.23,12.32-.33,24.66-.16,36.99-.09,13.06.08,21.47,7.9,22.32,20.6.82,12.29-6.88,22.03-19.21,23.82-4.25.62-8.64.44-12.96.45-17.5.04-35-.05-52.5.04-11.6.06-20.42-4.03-24.66-15.56-.19-.51-.96-.8-1.46-1.19,0-.67,0-1.33,0-2,1.67-1.26.97-3.07.97-4.63.03-130.58.03-261.16,0-391.74,0-1.56.71-3.38-.97-4.63v-2Z"/>
  <path class="cls-3" d="M0,18.91c1.69,1.25.97,3.06.97,4.63.03,130.58.03,261.16,0,391.74,0,1.57.7,3.38-.97,4.63V18.91Z"/>
  <path class="cls-1" d="M374.9,218.92c1.01,20.74-2.96,39.63-11.7,57.28-9.61,19.4-23.55,35.08-42.33,46.38-13.03,7.84-27.09,12.77-41.91,14.99-12.77,1.92-25.71,1.79-38.72.57-17.96-1.68-34.31-7.49-49.41-16.9-15.46-9.64-27.64-22.49-36.93-38.31-13.47-22.95-17.59-47.93-15.7-73.83,1.97-27.03,10.9-51.46,29.8-71.98,13.77-14.95,30.04-25.59,49.11-31.48,16.66-5.15,33.88-6.41,51.56-5.08,20.62,1.56,39.25,7.83,56.27,18.97,13.28,8.7,24.03,19.95,32.52,33.65,6.12,9.88,10.7,20.26,13.6,31.29,3.03,11.52,5,23.34,3.84,34.46ZM333.28,211.07c.33-9.87-4.6-27.18-15.56-42.48-8.26-11.52-19.1-19.98-32.63-24.86-13.24-4.78-26.7-5.7-40.61-3.94-11.64,1.47-22.34,5.3-31.71,12.07-21.1,15.22-30.97,36.85-32.6,62.15-1.32,20.5,3.01,40.03,15.85,56.68,6.48,8.4,14.18,15.61,23.79,20.78,13.38,7.21,27.58,8.96,42.41,8.48,17.86-.58,33.27-7,46.28-19.09,17.66-16.4,24.41-37.29,24.77-69.79Z"/>
</svg>